# xmcd
#
# Track frame offsets:
#	150
#	21462
#	36040
#	50159
#	64718
#	83496
#	102946
#	123041
#	143559
#	164412
#	184048
#	202854
#	231948
# Disc length: 3401 seconds
# Revision: 2
# Processed by: cddbd v1.5.2PL0 Copyright (c) Steve Scherf et al.
#
# Submitted via: libkcddb 0.31
#
DISCID=a60d470d
DTITLE=Maria Muldaur - Steady Love
DYEAR=2011
DGENRE=Blues
TTITLE0=I'll Be Glad
TTITLE1=Why Are People Like That?
TTITLE2=Soulful Dress
TTITLE3=Blues Go Walking
TTITLE4=I Done Made It Up In My Mind
TTITLE5=Walk By Faith
TTITLE6=As An Eagle Stirreth In Her Nest
TTITLE7=Rain Down Tears
TTITLE8=Get You Next To Me
TTITLE9=Steady Love
TTITLE10=Don't Ever Let Nobody Drag Your Spirit Down
TTITLE11=Please Send Me Someone To Love
TTITLE12=I Am Not Alone
EXTD=YEAR: 2011
EXTT0=
EXTT1=
EXTT2=
EXTT3=
EXTT4=
EXTT5=
EXTT6=
EXTT7=
EXTT8=
EXTT9=
EXTT10=
EXTT11=
EXTT12=
PLAYORDER=
